<svg xmlns="http://www.w3.org/2000/svg" xmlns:xlink="http://www.w3.org/1999/xlink" width="800" zoomAndPan="magnify" viewBox="0 0 600 599.999999" height="800" preserveAspectRatio="xMidYMid meet" version="1.0"><defs><clipPath id="97f8f4597c"><path d="M 281 281 L 352 281 L 352 337.757812 L 281 337.757812 Z M 281 281 " clip-rule="nonzero"/></clipPath><clipPath id="abda88c011"><path d="M 359 281 L 432 281 L 432 337.757812 L 359 337.757812 Z M 359 281 " clip-rule="nonzero"/></clipPath><clipPath id="25eb86cde8"><path d="M 8.234375 262.007812 L 188 262.007812 L 188 337.757812 L 8.234375 337.757812 Z M 8.234375 262.007812 " clip-rule="nonzero"/></clipPath></defs><path fill="#000000" d="M 274.257812 293.214844 L 247.070312 293.214844 L 247.070312 336.960938 L 232.71875 336.960938 L 232.71875 293.214844 L 205.503906 293.214844 L 205.503906 281.191406 L 274.257812 281.191406 Z M 274.257812 293.214844 " fill-opacity="1" fill-rule="nonzero"/><g clip-path="url(#97f8f4597c)"><path fill="#000000" d="M 316.238281 337.757812 C 291.636719 337.757812 281.054688 328.429688 281.054688 308.988281 L 281.054688 281.191406 L 295.410156 281.191406 L 295.410156 309 C 295.410156 316.8125 297.570312 325.734375 316.199219 325.734375 C 334.824219 325.734375 337.019531 316.722656 337.019531 309 L 337.019531 281.191406 L 351.371094 281.191406 L 351.371094 309 C 351.414062 328.347656 340.78125 337.757812 316.238281 337.757812 Z M 316.238281 337.757812 " fill-opacity="1" fill-rule="nonzero"/></g><g clip-path="url(#abda88c011)"><path fill="#000000" d="M 431.128906 281.191406 L 431.128906 336.960938 L 411.539062 336.960938 L 373.421875 295.125 L 373.421875 337.011719 L 359.070312 337.011719 L 359.070312 281.191406 L 378.546875 281.191406 L 416.765625 323.078125 L 416.765625 281.191406 Z M 431.128906 281.191406 " fill-opacity="1" fill-rule="nonzero"/></g><path fill="#000000" d="M 453.519531 292.582031 L 453.519531 303.890625 L 498.285156 303.890625 L 498.285156 314.25 L 453.519531 314.25 L 453.519531 325.558594 L 498.285156 325.558594 L 498.285156 336.960938 L 439.125 336.960938 L 439.125 281.191406 L 498.285156 281.191406 L 498.285156 292.582031 Z M 453.519531 292.582031 " fill-opacity="1" fill-rule="nonzero"/><path fill="#000000" d="M 590.757812 336.960938 L 576.402344 336.960938 L 576.402344 298.710938 L 553.144531 336.960938 L 542.746094 336.960938 L 519.476562 298.710938 L 519.476562 336.960938 L 505.125 336.960938 L 505.125 281.191406 L 524.550781 281.191406 L 547.945312 320.542969 L 571.371094 281.191406 L 590.757812 281.191406 Z M 590.757812 336.960938 " fill-opacity="1" fill-rule="nonzero"/><g clip-path="url(#25eb86cde8)"><path fill="#000000" d="M 187.160156 279.375 L 187.160156 337.601562 L 138.324219 337.601562 L 138.324219 291.457031 C 138.324219 291.457031 122.167969 292.226562 122.167969 319.765625 L 122.167969 337.757812 L 73.328125 337.757812 L 73.328125 318.191406 C 72.304688 292.183594 57.183594 291.417969 57.183594 291.417969 L 57.183594 337.601562 L 8.46875 337.601562 L 8.46875 279.375 L 57.183594 279.375 C 57.183594 279.375 68.121094 279.375 73.328125 293.472656 L 73.328125 262.007812 L 122.167969 262.007812 L 122.167969 293.574219 C 127.25 279.375 138.324219 279.375 138.324219 279.375 Z M 187.160156 279.375 " fill-opacity="1" fill-rule="nonzero"/></g></svg>