<svg xmlns="http://www.w3.org/2000/svg" xmlns:xlink="http://www.w3.org/1999/xlink" width="800" zoomAndPan="magnify" viewBox="0 0 600 599.999999" height="800" preserveAspectRatio="xMidYMid meet" version="1.0"><defs><clipPath id="0ee2a51259"><path d="M 279 280 L 352 280 L 352 338.628906 L 279 338.628906 Z M 279 280 " clip-rule="nonzero"/></clipPath><clipPath id="88694a59bb"><path d="M 2.730469 261.378906 L 185 261.378906 L 185 338.628906 L 2.730469 338.628906 Z M 2.730469 261.378906 " clip-rule="nonzero"/></clipPath></defs><path fill="#ffffff" d="M 273.054688 293.207031 L 245.429688 293.207031 L 245.429688 337.816406 L 230.84375 337.816406 L 230.84375 293.207031 L 203.1875 293.207031 L 203.1875 280.945312 L 273.054688 280.945312 Z M 273.054688 293.207031 " fill-opacity="1" fill-rule="nonzero"/><g clip-path="url(#0ee2a51259)"><path fill="#ffffff" d="M 315.714844 338.628906 C 290.714844 338.628906 279.960938 329.117188 279.960938 309.292969 L 279.960938 280.945312 L 294.546875 280.945312 L 294.546875 309.304688 C 294.546875 317.273438 296.746094 326.367188 315.675781 326.367188 C 334.601562 326.367188 336.832031 317.179688 336.832031 309.304688 L 336.832031 280.945312 L 351.417969 280.945312 L 351.417969 309.304688 C 351.457031 329.035156 340.65625 338.628906 315.714844 338.628906 Z M 315.714844 338.628906 " fill-opacity="1" fill-rule="nonzero"/></g><path fill="#ffffff" d="M 432.464844 280.945312 L 432.464844 337.816406 L 412.558594 337.816406 L 373.824219 295.15625 L 373.824219 337.871094 L 359.238281 337.871094 L 359.238281 280.945312 L 379.03125 280.945312 L 417.871094 323.660156 L 417.871094 280.945312 Z M 432.464844 280.945312 " fill-opacity="1" fill-rule="nonzero"/><path fill="#ffffff" d="M 455.214844 292.5625 L 455.214844 304.09375 L 500.710938 304.09375 L 500.710938 314.660156 L 455.214844 314.660156 L 455.214844 326.191406 L 500.710938 326.191406 L 500.710938 337.816406 L 440.589844 337.816406 L 440.589844 280.945312 L 500.710938 280.945312 L 500.710938 292.5625 Z M 455.214844 292.5625 " fill-opacity="1" fill-rule="nonzero"/><path fill="#ffffff" d="M 594.675781 337.816406 L 580.089844 337.816406 L 580.089844 298.8125 L 556.453125 337.816406 L 545.890625 337.816406 L 522.242188 298.8125 L 522.242188 337.816406 L 507.65625 337.816406 L 507.65625 280.945312 L 527.398438 280.945312 L 551.171875 321.074219 L 574.976562 280.945312 L 594.675781 280.945312 Z M 594.675781 337.816406 " fill-opacity="1" fill-rule="nonzero"/><g clip-path="url(#88694a59bb)"><path fill="#ffffff" d="M 184.550781 279.089844 L 184.550781 338.472656 L 134.921875 338.472656 L 134.921875 291.414062 C 134.921875 291.414062 118.503906 292.195312 118.503906 320.285156 L 118.503906 338.628906 L 68.875 338.628906 L 68.875 318.679688 C 67.832031 292.15625 52.464844 291.375 52.464844 291.375 L 52.464844 338.472656 L 2.960938 338.472656 L 2.960938 279.089844 L 52.464844 279.089844 C 52.464844 279.089844 63.582031 279.089844 68.875 293.46875 L 68.875 261.378906 L 118.503906 261.378906 L 118.503906 293.570312 C 123.667969 279.089844 134.921875 279.089844 134.921875 279.089844 Z M 184.550781 279.089844 " fill-opacity="1" fill-rule="nonzero"/></g></svg>